# xmcd CD database file generated by Grip 3.2.0
# 
# Track frame offsets:
#       150
#       11848
#       25257
#       37487
#       47998
#       55416
#       68976
#       80277
#       89748
#       98415
#       107124
#       117378
#       127816
#       136831
#       147046
#       159294
#       170889
#       183353
#       196090
#       209131
# 
# Disc length: 2951 seconds
# 
# Revision: 2
# Processed by: cddbd v1.5.1PL2 Copyright (c) Steve Scherf et al.
# Submitted via: Grip 3.2.0
# 
DISCID=230b8514
DTITLE=Various Artist - Rhythm and Blues Goes Rock 'n' Roll - Vol 2 - Disc 15
DYEAR=2002
DGENRE=Other
TTITLE0=Buddy Lucas - Night Train
TTITLE1=Arthur Crudup - I Want My Lovin
TTITLE2=Jack Dupree - Shim Sham Shimmy
TTITLE3=Tender Slim - Don't Cut Out On Me
TTITLE4=Slim Harpo - Bobby Sox
TTITLE5=Robins (AKA Coasters) - Riot In Cell Block #9
TTITLE6=Tippo Lite - Jumping This Morning
TTITLE7=Bobby Martin - Tootsie Roll
TTITLE8=Modest Clifton - Pretty Little Baby
TTITLE9=King Alex Band - Sho' 'nuff Miss Brown
TTITLE10=Beverly Wright - Kissin' Boogie
TTITLE11=Egyptians - Flipping Their Top
TTITLE12=Shortie Billups - Boss Chick
TTITLE13=Carmen Davis - No No Baby
TTITLE14=Laurel Aitken - Boogie In The Bones
TTITLE15=Charles Kelley - Telegram
TTITLE16=Wynonie Harris - Good Rockin' Tonight
TTITLE17=Jackie Brenston - Rocket 88
TTITLE18=Arthur Crudup - That's Alright Mama
TTITLE19=Louis Jordan - Choo Choo Ch'boogie
EXTD=YEAR: 2002
EXTT0=
EXTT1=
EXTT2=
EXTT3=
EXTT4=
EXTT5=
EXTT6=
EXTT7=
EXTT8=
EXTT9=
EXTT10=
EXTT11=
EXTT12=
EXTT13=
EXTT14=
EXTT15=
EXTT16=
EXTT17=
EXTT18=
EXTT19=
PLAYORDER=
